<svg xmlns="http://www.w3.org/2000/svg"
  viewBox="0 0 32 32">
  <defs>
    <style>.a{fill:none;stroke:#c3f;stroke-width:0.57px;}.b{fill:#c3f;}</style>
  </defs>
  <path class="a"
    d="M17.85,31.49h11a2.64,2.64,0,0,0,2.64-2.64V3.15A2.64,2.64,0,0,0,28.85.51H3.15A2.64,2.64,0,0,0,.51,3.15v25.7a2.64,2.64,0,0,0,2.64,2.64h14.7" />
  <path class="b"
    d="M16.11,14.12,2.49,10.53V6.71l13.61-4,13.5,4.08,0,3.77Zm.05,7.57L29.61,18.1V14.2l-13.5,3.9-13.62-4v4Zm-.05,7.63,13.5-3.74V21.7l-13.5,3.85L2.49,21.7v3.85ZM2.39,6.7" />
</svg>