<svg xmlns="http://www.w3.org/2000/svg"
  viewBox="0 0 204 59">
  <defs>
    <style>.a{fill:none;stroke:#c3f;}.b{fill:#c3f;}.c{fill:#09f;}</style>
  </defs>
  <path class="a"
    d="M33.2,56.8H52.58a4.67,4.67,0,0,0,4.67-4.67V6.87A4.67,4.67,0,0,0,52.58,2.2H7.31A4.66,4.66,0,0,0,2.65,6.87V52.13A4.66,4.66,0,0,0,7.31,56.8H33.2" />
  <path class="b"
    d="M30.13,26.18l-24-6.32,0-6.73L30.13,6l23.8,7.19,0,6.66Zm.1,13.35,23.7-6.33V26.33L30.14,33.2l-24-7v7ZM30.14,53l23.79-6.6V39.54L30.14,46.33l-24-6.79v6.79ZM6,13.12" />
  <path class="c"
    d="M154.52,25.52q0,8.54,0,17.07a8.78,8.78,0,0,1-7.28,8.77,9,9,0,0,1-1.64.11H119.34a8.38,8.38,0,0,1-3.5-.69,8.57,8.57,0,0,1-5.14-6.3,7.56,7.56,0,0,1-.15-1.58q0-9.61,0-19.24c0-.71,0-.73.72-.73h11.6c.68,0,.69,0,.69.69V37.22c0,.2,0,.4,0,.59s.09.41.44.42q.77,0,1.53,0c.3,0,.39-.1.42-.38s0-.47,0-.71V13.72c0-.24,0-.47,0-.71a.3.3,0,0,1,.3-.3h12c.68,0,.68,0,.68.7,0,7.92,0,15.84,0,23.77,0,.23,0,.47,0,.7s.09.34.32.35h1.76a.3.3,0,0,0,.28-.26,2.16,2.16,0,0,0,0-.35c0-.2,0-.4,0-.59V8.54c0-.24,0-.47,0-.71a.29.29,0,0,1,.3-.3h12.07c.73,0,.74,0,.74.76Z" />
  <path class="c"
    d="M117,7.46h5.77c.71,0,.71,0,.71.72V19.6c0,.74,0,.75-.75.75H111.22c-.78,0-.79,0-.79-.79V8.27c0-.8,0-.8.83-.81Z" />
  <path class="c"
    d="M89.7,51.54H72.63a8.75,8.75,0,0,1-5.19-1.62,8.58,8.58,0,0,1-3.59-5.66,10,10,0,0,1-.11-1.64V32.79c0-5.48,0-10.95,0-16.43a8.52,8.52,0,0,1,.68-3.49,8.61,8.61,0,0,1,6.31-5.15,7.56,7.56,0,0,1,1.58-.15q9.61,0,19.24,0c.71,0,.73,0,.73.72v11.6c0,.68,0,.69-.69.69H78a5.61,5.61,0,0,0-.58,0c-.33,0-.41.09-.42.43,0,.51,0,1,0,1.53,0,.3.09.39.38.42s.47,0,.71,0H101.5c.23,0,.47,0,.7,0a.3.3,0,0,1,.31.3c0,.13,0,.27,0,.41V35.31c0,.68,0,.69-.7.69H77.34c-.24,0-.33.1-.34.33,0,.58,0,1.17,0,1.76a.28.28,0,0,0,.26.28,2.07,2.07,0,0,0,.35,0c.2,0,.39,0,.59,0h28.48l.71,0a.29.29,0,0,1,.29.3c0,.16,0,.32,0,.47V50.8c0,.74,0,.74-.76.74Z" />
  <path class="c"
    d="M107.75,14v5.76c0,.71,0,.72-.72.72H95.62c-.75,0-.75,0-.75-.76V8.24c0-.77,0-.78.79-.78H107c.8,0,.8,0,.8.82Z" />
  <path class="c"
    d="M157.27,33.45c0-5.69,0-11.38,0-17.06a8.78,8.78,0,0,1,1.62-5.2,8.57,8.57,0,0,1,5.66-3.58,9.1,9.1,0,0,1,1.64-.11h26.26a8.37,8.37,0,0,1,3.49.69,8.6,8.6,0,0,1,5.15,6.3,7.62,7.62,0,0,1,.15,1.58q0,9.61,0,19.24c0,.71,0,.73-.72.73h-11.6c-.68,0-.69,0-.69-.69V21.75a5.81,5.81,0,0,0,0-.59c0-.33-.09-.41-.43-.42h-1.53c-.3,0-.39.1-.42.39s0,.47,0,.7V45.25c0,.24,0,.47,0,.71a.29.29,0,0,1-.3.3h-12c-.68,0-.69,0-.69-.69V21.8c0-.23,0-.47,0-.7s-.1-.34-.33-.34c-.58,0-1.17,0-1.76,0a.28.28,0,0,0-.28.26,2,2,0,0,0,0,.35c0,.19,0,.39,0,.58V50.43c0,.24,0,.48,0,.71a.29.29,0,0,1-.3.3H158c-.74,0-.74,0-.74-.76Z" />
  <path class="c"
    d="M194.82,51.51h-5.76c-.71,0-.72,0-.72-.73V39.37c0-.74,0-.75.76-.75h11.47c.77,0,.78,0,.78.79q0,5.66,0,11.29c0,.81,0,.81-.82.81Z" />
</svg>